Coordinates
version=1
nRows=14
nColumns=40
inDegrees=yes

Units are S.I. units (second, meters, Newtons, ...)
If the header above contains a line with 'inDegrees', this indicates whether rotational values are in degrees (yes) or radians (no).

endheader
time	pelvis_tilt	pelvis_list	pelvis_rotation	pelvis_tx	pelvis_ty	pelvis_tz	hip_flexion_r	hip_adduction_r	hip_rotation_r	knee_angle_r	knee_angle_r_beta	ankle_angle_r	subtalar_angle_r	mtp_angle_r	hip_flexion_l	hip_adduction_l	hip_rotation_l	knee_angle_l	knee_angle_l_beta	ankle_angle_l	subtalar_angle_l	mtp_angle_l	lumbar_extension	lumbar_bending	lumbar_rotation	arm_flex_r	arm_add_r	arm_rot_r	elbow_flex_r	pro_sup_r	wrist_flex_r	wrist_dev_r	arm_flex_l	arm_add_l	arm_rot_l	elbow_flex_l	pro_sup_l	wrist_flex_l	wrist_dev_l
      0.55000000	      9.14312941	      4.02709335	     -1.10333835	     -0.60253162	      0.93164357	      0.21259269	     16.70337910	     -2.85778493	     -2.25137996	      2.45587133	      0.04286304	     -0.45129691	      0.00000000	      0.00000000	    -24.45185885	      6.90881473	      3.11468264	      8.18530841	      0.14286058	     15.54219678	      0.00000000	      0.00000000	    -23.87665791	     -1.46957237	    -10.44014289	     -8.52256903	     -5.78463110	     -4.45438067	     28.45312352	     88.29163671	    -13.32133602	      0.05809675	     10.40278778	    -10.99906529	    -10.57792216	     69.86768637	     88.78006042	     -8.90891375	      3.59387779
      0.56000000	      9.21113983	      3.63125810	     -1.02561684	     -0.58864454	      0.93090264	      0.21336931	     16.36998517	     -2.28580999	     -1.98586783	      2.62988105	      0.04590008	     -0.77186708	      0.00000000	      0.00000000	    -25.08771490	      6.37498721	      2.62364243	      8.93045538	      0.15586585	     15.20149942	      0.00000000	      0.00000000	    -23.89147185	     -1.02551746	    -10.27810125	     -8.64504342	     -5.80759256	     -4.49844599	     27.89197628	     88.28021935	    -13.20984514	      0.20018910	     10.12420698	    -10.73165900	    -10.61236272	     70.96818446	     88.78666424	     -8.72923549	      3.26534028
      0.57000000	      9.38842960	      3.00879464	     -0.88640029	     -0.57435484	      0.93063304	      0.21405421	     15.82901273	     -1.52587658	     -2.08478555	      3.02512898	      0.05279846	     -1.25181328	      0.00000000	      0.00000000	    -25.80588515	      5.57797778	      2.01718178	      9.80264960	      0.17108851	     14.77868141	      0.00000000	      0.00000000	    -24.01439661	     -0.31468695	    -10.12662671	     -8.71297972	     -5.91440595	     -4.35101752	     27.34902863	     88.26705610	    -13.03252059	      0.42413979	      9.70226656	    -10.37523900	    -10.77594579	     71.99968747	     88.79304245	     -8.51695661	      2.76564506
      0.58000000	      9.62284501	      2.24540234	     -0.61451688	     -0.55981458	      0.93079835	      0.21456849	     15.16794851	     -0.68302889	     -2.50463537	      3.63091394	      0.06337140	     -1.84222651	      0.00000000	      0.00000000	    -26.49691310	      4.57052292	      1.50069713	     10.84457676	      0.18927357	     14.17689826	      0.00000000	      0.00000000	    -24.17066806	      0.58920978	    -10.04658178	     -8.71287542	     -6.06677614	     -4.01976091	     26.76401267	     88.24200369	    -12.82123968	      0.77412408	      9.19429186	     -9.99270257	    -10.92254212	     72.84900796	     88.79691557	     -8.27913143	      2.07144387
      0.59000000	      9.71650612	      1.83026185	     -0.44136694	     -0.54547658	      0.93097812	      0.21527502	     14.77566398	     -0.21789748	     -2.70427436	      4.61300596	      0.08051214	     -2.27286653	      0.00000000	      0.00000000	    -26.86363864	      3.93385662	      1.18759667	     12.16321806	      0.21228820	     13.16582162	      0.00000000	      0.00000000	    -24.19270330	      1.08232182	     -9.78755308	     -8.76428738	     -6.10363356	     -3.98339864	     26.17936813	     88.23299666	    -12.78875020	      0.94324913	      8.80479019	     -9.64926242	    -10.75198443	     73.46298486	     88.79725596	     -8.19618424	      1.78419065
      0.60000000	     10.07524437	      0.64760927	     -0.00638445	     -0.53033244	      0.93198440	      0.21564279	     13.87044607	      0.99405305	     -3.77007240	      5.43982184	      0.09494280	     -3.14316595	      0.00000000	      0.00000000	    -27.44052144	      2.38490041	      0.38623345	     13.73129773	      0.23965636	     12.25091844	      0.00000000	      0.00000000	    -24.40244810	      2.47881896	     -9.77292561	     -8.64765582	     -6.38158910	     -3.29202432	     25.64375892	     88.20100231	    -12.54325182	      1.51258258	      8.05652109	     -9.16156505	    -10.99190981	     73.95677570	     88.79955551	     -8.07395143	      0.52748842
      0.61000000	     10.26074331	     -0.27518273	      0.29131601	     -0.51536084	      0.93291134	      0.21625850	     13.25885988	      1.94162825	     -4.39152052	      6.50725181	      0.11357297	     -3.75871173	      0.00000000	      0.00000000	    -27.66324234	      1.12721251	     -0.27334199	     15.55675166	      0.27151654	     10.97672987	      0.00000000	      0.00000000	    -24.43763390	      3.53309396	     -9.49680784	     -8.62446831	     -6.55544456	     -2.95702183	     25.16926691	     88.19841875	    -12.43156439	      1.85531728	      7.43134056	     -8.66744184	    -10.95953556	     74.22152184	     88.79915403	     -8.06550982	     -0.18170677
      0.62000000	     10.45984741	     -1.19701807	      0.61428288	     -0.50037328	      0.93414844	      0.21687366	     12.61314474	      2.87788999	     -4.99196167	      7.58330626	      0.13235366	     -4.31896356	      0.00000000	      0.00000000	    -27.73837354	     -0.17509654	     -0.88115665	     17.63601856	      0.30780659	      9.35661310	      0.00000000	      0.00000000	    -24.47396683	      4.58956626	     -9.19135899	     -8.58863192	     -6.72255094	     -2.65425555	     24.76590537	     88.19941290	    -12.31827788	      2.21419305	      6.78373681	     -8.15854855	    -10.87388423	     74.27860341	     88.79841122	     -8.07383889	     -0.85416343
      0.63000000	     10.66323356	     -1.76802541	      0.82247816	     -0.48593691	      0.93568452	      0.21761816	     12.01519678	      3.45977555	     -4.93051351	      8.73670468	      0.15248426	     -4.55231226	      0.00000000	      0.00000000	    -27.62960245	     -1.07014299	     -0.97002887	     19.91887690	      0.34764999	      7.32913153	      0.00000000	      0.00000000	    -24.59432845	      5.22870436	     -8.81541497	     -8.49707240	     -6.79199537	     -2.58369749	     24.39244399	     88.21787609	    -12.28066126	      2.37882609	      6.24380795	     -7.65787295	    -10.74203317	     74.21615160	     88.79913509	     -8.06379932	     -1.05347436
      0.64000000	     10.87147768	     -3.18372430	      1.32877001	     -0.47043557	      0.93735866	      0.21823298	     11.20578172	      4.92388690	     -5.93964512	      9.50257461	      0.16585121	     -5.14244830	      0.00000000	      0.00000000	    -27.37912039	     -3.07569757	     -1.98055462	     22.59570829	      0.39436951	      5.28991241	      0.00000000	      0.00000000	    -24.51317936	      6.82147145	     -8.45529033	     -8.51115908	     -7.05173484	     -2.20100259	     24.27012270	     88.20712479	    -12.03768102	      3.07614848	      5.45852877	     -7.07660916	    -10.61747871	     73.76774904	     88.79876035	     -8.12023438	     -2.24721098
      0.65000000	     11.12278246	     -3.76034472	      1.52654126	     -0.45625169	      0.93934501	      0.21917488	     10.49696012	      5.56139458	     -5.70698676	     10.49468075	      0.18316673	     -4.98948344	      0.00000000	      0.00000000	    -26.95325489	     -4.04871589	     -2.04362121	     25.36596710	      0.44271964	      2.72807795	      0.00000000	      0.00000000	    -24.69820730	      7.42667376	     -8.02293210	     -8.36697220	     -7.10685520	     -2.14882729	     24.12723341	     88.23016838	    -11.98462168	      3.22113575	      4.88733735	     -6.55364657	    -10.54614130	     73.35685735	     88.79907771	     -8.14316942	     -2.37929539
      0.66000000	     11.08710677	     -4.79014929	      1.80734909	     -0.44132983	      0.94091896	      0.22022445	      9.99390956	      6.68741031	     -6.16412675	     11.25937911	      0.19651324	     -4.88664142	      0.00000000	      0.00000000	    -26.06836463	     -5.65164719	     -2.78364132	     28.41592985	      0.49595154	     -0.28112874	      0.00000000	      0.00000000	    -24.42054324	      8.52198054	     -7.52422669	     -8.39682266	     -7.26250286	     -2.12069646	     24.27533350	     88.22578799	    -11.85223854	      3.56373426	      4.14628531	     -6.05917173	    -10.29730647	     72.64949296	     88.79711866	     -8.15117860	     -2.76711822
      0.67000000	     11.00737825	     -5.90358736	      2.17309173	     -0.42693122	      0.94245209	      0.22111190	      9.50464612	      7.91846052	     -6.32231983	     11.82695280	      0.20641927	     -4.68940081	      0.00000000	      0.00000000	    -24.90564137	     -7.36206407	     -3.05515599	     31.71791184	      0.55358199	     -2.82537109	      0.00000000	      0.00000000	    -24.11732515	      9.74404517	     -6.92989778	     -8.44203746	     -7.39212848	     -2.50213488	     24.60315122	     88.25553201	    -11.57900122	      4.20796076	      3.58572169	     -5.48670987	    -10.00661707	     71.52399170	     88.79715263	     -8.22121061	     -3.51856859
      0.68000000	     10.88506906	     -6.70743143	      2.40362412	     -0.41304432	      0.94394831	      0.22223906	      9.06487530	      8.85784668	     -6.27942058	     12.37732428	      0.21602506	     -4.11106853	      0.00000000	      0.00000000	    -23.52560328	     -8.71399591	     -3.13496544	     35.06169840	      0.61194208	     -5.69887770	      0.00000000	      0.00000000	    -23.86505209	     10.58425414	     -6.29269521	     -8.48714097	     -7.44507427	     -3.09829740	     25.15081067	     88.30558008	    -11.24864125	      4.64022814	      3.07466305	     -4.99367542	     -9.68550850	     70.37799670	     88.79490988	     -8.32061917	     -3.89059441
